<svg xmlns="http://www.w3.org/2000/svg" xmlns:xlink="http://www.w3.org/1999/xlink" viewBox="0,0,256,256" width="48px" height="48px" fill-rule="nonzero"><g fill="none" fill-rule="nonzero" stroke="none" stroke-width="1" stroke-linecap="butt" stroke-linejoin="miter" stroke-miterlimit="10" stroke-dasharray="" stroke-dashoffset="0" font-family="none" font-weight="none" font-size="none" text-anchor="none" style="mix-blend-mode: normal"><g transform="scale(5.33333,5.33333)"><path d="M24,2v0v0l-20.563,7.304l3.136,27.082l17.427,9.614v0v0l17.427,-9.614l3.136,-27.082z" fill="#d41300"></path><path d="M30.033,22.866l-1.973,-0.438l1.534,2.191v6.793l5.261,-4.382v-7.45l-2.411,0.876z" fill="#ffffff"></path><path d="M17.758,22.866l1.973,-0.438l-1.534,2.191v6.793l-5.261,-4.382v-7.45l2.411,0.876z" fill="#ffffff"></path><path d="M18.833,25.03l1.748,-2.635l1.093,0.659h4.371l1.093,-0.659l1.748,2.635v9.88l-1.311,1.976l-1.53,1.537h-4.371l-1.53,-1.537l-1.311,-1.976z" fill="#ffffff"></path><path d="M29.595,35.575l2.849,-2.849v-2.849l-2.849,2.41z" fill="#ffffff"></path><path d="M18.197,35.575l-2.849,-2.849v-2.849l2.849,2.41z" fill="#ffffff"></path><path d="M21.046,9.719l-1.754,4.163l2.849,8.326h1.315v-12.489zM24.334,9.719v12.49h1.535l2.63,-8.326l-1.754,-4.163h-2.411z" fill="#ffffff"></path><path d="M22.142,22.208l-9.425,-3.506l-1.315,-5.478l8.11,0.657l2.849,8.326h-0.219z" fill="#ffffff"></path><path d="M25.869,22.208l9.425,-3.506l1.315,-5.478l-8.329,0.657l-2.63,8.326h0.219z" fill="#ffffff"></path><path d="M28.937,13.225l4.603,-0.438l-3.069,-3.068h-3.069z" fill="#ffffff"></path><path d="M18.854,13.225l-4.603,-0.438l3.069,-3.068h3.069z" fill="#ffffff"></path></g></g></svg>